<svg aria-hidden="true" style="width:0;height:0;position:absolute;overflow:hidden" xmlns="http://www.w3.org/2000/svg"><defs><symbol id="icon-menu-burger" viewBox="0 0 32 32"><path d="M2 6h28v6H2zm0 8h28v6H2zm0 8h28v6H2z"/></symbol><symbol id="icon-close" viewBox="0 0 32 32"><path d="M31.708 25.708 22 16l9.708-9.708a1 1 0 0 0 0-1.414L27.122.292a1 1 0 0 0-1.414-.001L16 9.999 6.292.291a.998.998 0 0 0-1.414.001L.292 4.878a1 1 0 0 0 0 1.414L10 16 .292 25.708a.999.999 0 0 0 0 1.414l4.586 4.586a1 1 0 0 0 1.414 0L16 22l9.708 9.708a1 1 0 0 0 1.414 0l4.586-4.586a.999.999 0 0 0 0-1.414z"/></symbol><symbol id="icon-icon-gmail" viewBox="0 0 32 32"><path fill="#e0e0e0" style="fill:var(--color7,#e0e0e0)" d="M3.667 27h24.667a2.333 2.333 0 0 0 2.333-2.333V7.334a2.333 2.333 0 0 0-2.333-2.333H3.667a2.333 2.333 0 0 0-2.333 2.333v17.333A2.333 2.333 0 0 0 3.667 27z"/><path fill="#d9d9d9" style="fill:var(--color8,#d9d9d9)" d="M17.333 27h11a2.333 2.333 0 0 0 2.333-2.333V7.334a2.333 2.333 0 0 0-2.333-2.333H3.666a2.333 2.333 0 0 0-2.333 2.333l16 19.667z"/><path fill="#eee" style="fill:var(--color9,#eee)" d="M4.497 27h23.837a2.333 2.333 0 0 0 2.333-2.333v-17L4.497 27z"/><path fill="#e0e0e0" style="fill:var(--color7,#e0e0e0)" d="M17.163 27h11.17a2.333 2.333 0 0 0 2.333-2.333v-17L12.513 21.078l4.649 5.923z"/><path fill="#ca3737" style="fill:var(--color10,#ca3737)" d="M28.333 6.333H3.666c-1.289 0-2.333-.289-2.333 1v17.333a2.333 2.333 0 0 0 2.333 2.333h1v-19h22.667v19h1a2.333 2.333 0 0 0 2.333-2.333V7.333c0-1.289-1.045-1-2.333-1z"/><path fill="#f5f5f5" style="fill:var(--color11,#f5f5f5)" d="M28.333 5H3.666a2.32 2.32 0 0 0-2.333 2.333c0 .804 1.012 1.505 1.012 1.505L16 18.503l13.655-9.665s1.012-.702 1.012-1.505a2.32 2.32 0 0 0-2.333-2.334z"/><path fill="#e84f4b" style="fill:var(--color12,#e84f4b)" d="M28.831 5.055 16 14 3.169 5.055a2.316 2.316 0 0 0-1.836 2.279c0 .804 1.012 1.505 1.012 1.505L16 18.504l13.655-9.665s1.012-.702 1.012-1.505a2.315 2.315 0 0 0-1.836-2.279z"/></symbol><symbol id="icon-icon-telegram" viewBox="0 0 32 32"><path fill="#29b6f6" style="fill:var(--color5,#29b6f6)" d="M16 2.667C8.636 2.667 2.667 8.637 2.667 16S8.637 29.333 16 29.333c7.364 0 13.333-5.97 13.333-13.333S23.363 2.667 16 2.667z"/><path fill="#fff" style="fill:var(--color1,#fff)" d="m22.633 10-2.497 12.751s-.107.583-.83.583c-.384 0-.582-.183-.582-.183l-5.409-4.489-2.647-1.334-3.397-.903s-.605-.175-.605-.675c0-.417.622-.615.622-.615L21.499 9.49c-.001-.001.434-.157.751-.156.195 0 .417.083.417.333 0 .167-.033.333-.033.333z"/><path fill="#b0bec5" style="fill:var(--color6,#b0bec5)" d="m15.333 20.337-2.284 2.249s-.099.077-.232.08a.33.33 0 0 1-.146-.029l.643-3.977 2.019 1.676z"/><path fill="#cfd8dc" style="fill:var(--color2,#cfd8dc)" d="M19.931 12.131a.333.333 0 0 0-.467-.062l-8.797 5.265s1.404 3.928 1.618 4.608.387.697.387.697l.643-3.977 6.555-6.064a.333.333 0 0 0 .063-.467z"/></symbol><symbol id="icon-icon-phone" viewBox="0 0 32 32"><path d="M8.96 2.554a6.41 6.41 0 0 0-6.4 6.4v14.08a6.41 6.41 0 0 0 6.4 6.4h14.08a6.41 6.41 0 0 0 6.4-6.4V8.954a6.41 6.41 0 0 0-6.4-6.4H8.96zm0 1.28h14.08a5.11 5.11 0 0 1 5.12 5.12v14.08a5.11 5.11 0 0 1-5.12 5.12H8.96a5.11 5.11 0 0 1-5.12-5.12V8.954a5.11 5.11 0 0 1 5.12-5.12zm2.591 3.229c-1.309-.057-2.303.441-2.928 1.039-.313.299-.538.619-.692.918s-.253.545-.253.865a8.75 8.75 0 0 0 .002.986c.032.566.128 1.332.382 2.24.509 1.816 1.656 4.198 4.143 6.685s4.869 3.633 6.685 4.142c.908.255 1.674.35 2.24.383a8.197 8.197 0 0 0 .986.001c.32 0 .566-.098.865-.253s.619-.38.918-.692c.598-.625 1.095-1.619 1.039-2.928a1.895 1.895 0 0 0-.885-1.505l-1.81-1.159a3.036 3.036 0 0 0-3.087-.105l.055-.027-.754.324-.055.039a.632.632 0 0 1-.616.066c-.577-.241-1.477-.716-2.314-1.552s-1.311-1.736-1.553-2.314a.635.635 0 0 1 .066-.616l.039-.055.324-.754-.027.055a3.036 3.036 0 0 0-.105-3.088l-1.159-1.81a1.895 1.895 0 0 0-1.505-.885zm-.055 1.278c.18.008.365.113.482.296l1.159 1.81c.34.531.364 1.229.06 1.783l-.015.027-.309.721.064-.116a1.927 1.927 0 0 0-.2 1.846c.288.69.84 1.736 1.829 2.725s2.035 1.54 2.725 1.829a1.927 1.927 0 0 0 1.846-.2l-.116.064.721-.309.027-.015a1.77 1.77 0 0 1 1.782.061v-.001l1.81 1.159a.62.62 0 0 1 .296.483c.042.972-.296 1.58-.685 1.988-.195.203-.406.351-.58.441s-.341.109-.277.109c-.117 0-.179.008-.326.011s-.344.004-.587-.01a9.3 9.3 0 0 1-1.968-.337c-1.618-.454-3.787-1.477-6.125-3.815s-3.361-4.507-3.815-6.125a9.252 9.252 0 0 1-.338-1.967c-.014-.243-.014-.44-.01-.588s.011-.209.011-.326c0 .063.019-.103.109-.277s.238-.385.441-.58c.407-.389 1.016-.727 1.988-.685z"/></symbol><symbol id="icon-icon-linkedin" viewBox="0 0 32 32"><path fill="#0288d1" style="fill:var(--color4,#0288d1)" d="M28 24.667A3.333 3.333 0 0 1 24.667 28H7.334a3.333 3.333 0 0 1-3.333-3.333V7.334a3.333 3.333 0 0 1 3.333-3.333h17.333A3.333 3.333 0 0 1 28 7.334v17.333z"/><path fill="#fff" style="fill:var(--color1,#fff)" d="M8 12.667h3.333V24H8zm1.657-1.334h-.019C8.643 11.333 8 10.592 8 9.666 8 8.72 8.663 8 9.676 8c1.014 0 1.639.72 1.657 1.666 0 .925-.643 1.667-1.677 1.667zM24 24h-3.333v-6.066c0-1.465-.817-2.465-2.128-2.465-1.001 0-1.542.675-1.805 1.327-.096.233-.067.879-.067 1.205v6h-3.333V12.668h3.333v1.744c.481-.744 1.233-1.744 3.159-1.744 2.385 0 4.174 1.5 4.174 4.849l.001 6.484z"/></symbol><symbol id="icon-icon-whatsapp" viewBox="0 0 32 32"><path fill="#fff" style="fill:var(--color1,#fff)" d="m3.245 28.869 1.796-6.557a12.625 12.625 0 0 1-1.69-6.326C3.354 9.009 9.032 3.333 16.009 3.333c3.386.001 6.563 1.319 8.953 3.711s3.705 5.571 3.704 8.952c-.003 6.977-5.681 12.653-12.657 12.653-.001 0 0 0 0 0h-.005a12.646 12.646 0 0 1-6.049-1.541l-6.71 1.76z"/><path fill="#fff" style="fill:var(--color1,#fff)" d="M3.245 29.202a.335.335 0 0 1-.322-.421l1.759-6.424a12.985 12.985 0 0 1-1.665-6.371C3.02 8.825 8.847 2.999 16.008 2.999c3.473.001 6.737 1.354 9.189 3.809s3.803 5.718 3.801 9.187c-.003 7.161-5.831 12.987-12.991 12.987a13.024 13.024 0 0 1-6.096-1.518L3.328 29.19a.305.305 0 0 1-.085.011z"/><path fill="#cfd8dc" style="fill:var(--color2,#cfd8dc)" d="M16.009 3.333c3.386.001 6.563 1.319 8.953 3.711s3.705 5.571 3.704 8.952c-.003 6.977-5.681 12.653-12.657 12.653h-.005a12.646 12.646 0 0 1-6.049-1.541l-6.71 1.76 1.796-6.557a12.625 12.625 0 0 1-1.69-6.326C3.354 9.008 9.032 3.332 16.009 3.332zm0 25.316zm0 0zm0-25.982c-7.344 0-13.321 5.975-13.325 13.319a13.333 13.333 0 0 0 1.641 6.415l-1.723 6.293a.666.666 0 0 0 .812.821l6.458-1.693a13.35 13.35 0 0 0 6.131 1.496c7.349 0 13.327-5.975 13.33-13.32a13.236 13.236 0 0 0-3.899-9.423 13.25 13.25 0 0 0-9.426-3.907z"/><path fill="#40c351" style="fill:var(--color3,#40c351)" d="M23.451 8.555a10.45 10.45 0 0 0-7.438-3.084c-5.803 0-10.522 4.717-10.525 10.516a10.482 10.482 0 0 0 1.609 5.597l.251.398-1.063 3.881 3.982-1.044.385.228a10.502 10.502 0 0 0 5.355 1.466h.004c5.799 0 10.518-4.718 10.52-10.517a10.452 10.452 0 0 0-3.079-7.441z"/><path fill="#fff" style="fill:var(--color1,#fff)" d="M12.845 10.697c-.237-.527-.486-.537-.712-.547-.185-.008-.395-.007-.606-.007s-.553.079-.843.396c-.29.317-1.107 1.081-1.107 2.637s1.133 3.06 1.291 3.271c.158.211 2.188 3.506 5.403 4.774 2.671 1.053 3.215.844 3.795.791s1.871-.765 2.135-1.503c.263-.739.263-1.371.185-1.503s-.29-.211-.606-.369-1.871-.923-2.161-1.029c-.29-.105-.501-.158-.712.159s-.817 1.029-1.001 1.239c-.185.211-.369.238-.685.079s-1.335-.492-2.543-1.569c-.94-.838-1.575-1.873-1.759-2.19s-.02-.487.139-.645c.142-.142.316-.369.475-.554s.211-.317.316-.527c.105-.211.053-.396-.027-.554-.078-.159-.693-1.723-.974-2.348z"/></symbol></defs></svg>