<svg aria-hidden="true" style="width:0;height:0;position:absolute;overflow:hidden" xmlns="http://www.w3.org/2000/svg"><defs><symbol id="icon-menu-burger" viewBox="0 0 32 32"><path d="M2 6h28v6H2zm0 8h28v6H2zm0 8h28v6H2z"/></symbol><symbol id="icon-close" viewBox="0 0 32 32"><path d="M31.708 25.708 22 16l9.708-9.708a1 1 0 0 0 0-1.414L27.122.292a1 1 0 0 0-1.414-.001L16 9.999 6.292.291a.998.998 0 0 0-1.414.001L.292 4.878a1 1 0 0 0 0 1.414L10 16 .292 25.708a.999.999 0 0 0 0 1.414l4.586 4.586a1 1 0 0 0 1.414 0L16 22l9.708 9.708a1 1 0 0 0 1.414 0l4.586-4.586a.999.999 0 0 0 0-1.414z"/></symbol><symbol id="icon-phone" viewBox="0 0 32 32"><path d="M8.96 2.554a6.41 6.41 0 0 0-6.4 6.4v14.08a6.41 6.41 0 0 0 6.4 6.4h14.08a6.41 6.41 0 0 0 6.4-6.4V8.954a6.41 6.41 0 0 0-6.4-6.4H8.96zm0 1.28h14.08a5.11 5.11 0 0 1 5.12 5.12v14.08a5.11 5.11 0 0 1-5.12 5.12H8.96a5.11 5.11 0 0 1-5.12-5.12V8.954a5.11 5.11 0 0 1 5.12-5.12zm2.591 3.229c-1.309-.057-2.303.441-2.928 1.039-.313.299-.538.619-.692.918s-.253.545-.253.865a8.75 8.75 0 0 0 .002.986c.032.566.128 1.332.382 2.24.509 1.816 1.656 4.198 4.143 6.685s4.869 3.633 6.685 4.142c.908.255 1.674.35 2.24.383a8.197 8.197 0 0 0 .986.001c.32 0 .566-.098.865-.253s.619-.38.918-.692c.598-.625 1.095-1.619 1.039-2.928a1.895 1.895 0 0 0-.885-1.505l-1.81-1.159a3.036 3.036 0 0 0-3.087-.105l.055-.027-.754.324-.055.039a.632.632 0 0 1-.616.066c-.577-.241-1.477-.716-2.314-1.552s-1.311-1.736-1.553-2.314a.635.635 0 0 1 .066-.616l.039-.055.324-.754-.027.055a3.036 3.036 0 0 0-.105-3.088l-1.159-1.81a1.895 1.895 0 0 0-1.505-.885zm-.055 1.278c.18.008.365.113.482.296l1.159 1.81c.34.531.364 1.229.06 1.783l-.015.027-.309.721.064-.116a1.927 1.927 0 0 0-.2 1.846c.288.69.84 1.736 1.829 2.725s2.035 1.54 2.725 1.829a1.927 1.927 0 0 0 1.846-.2l-.116.064.721-.309.027-.015a1.77 1.77 0 0 1 1.782.061v-.001l1.81 1.159a.62.62 0 0 1 .296.483c.042.972-.296 1.58-.685 1.988-.195.203-.406.351-.58.441s-.341.109-.277.109c-.117 0-.179.008-.326.011s-.344.004-.587-.01a9.3 9.3 0 0 1-1.968-.337c-1.618-.454-3.787-1.477-6.125-3.815s-3.361-4.507-3.815-6.125a9.252 9.252 0 0 1-.338-1.967c-.014-.243-.014-.44-.01-.588s.011-.209.011-.326c0 .063.019-.103.109-.277s.238-.385.441-.58c.407-.389 1.016-.727 1.988-.685z"/></symbol><symbol id="icon-telegram" viewBox="0 0 32 32"><path d="M16 1.28C7.878 1.28 1.28 7.878 1.28 16S7.878 30.72 16 30.72 30.72 24.122 30.72 16 24.122 1.28 16 1.28zm0 1.28c7.43 0 13.44 6.01 13.44 13.44S23.43 29.44 16 29.44 2.56 23.43 2.56 16 8.57 2.56 16 2.56zm5.816 6.422c-.438 0-.93.102-1.505.309-.893.322-11.402 4.783-12.597 5.291-.684.291-1.956.831-1.956 2.12 0 .854.5 1.466 1.486 1.818.53.189 1.789.57 2.519.771.31.085.639.128.977.128.662 0 1.329-.164 1.852-.456-.004.108-.002.216.011.325.079.672.493 1.304 1.107 1.691.403.253 3.685 2.453 4.175 2.803.689.492 1.45.752 2.2.752 1.434 0 1.914-1.48 2.146-2.191.336-1.032 1.594-9.427 1.736-10.908.097-1.014-.326-1.85-1.131-2.235a2.303 2.303 0 0 0-.987-.219h-.035.002zm0 1.28c.176 0 .333.029.466.094.303.145.457.469.41.959-.155 1.615-1.41 9.811-1.677 10.632-.229.703-.47 1.308-.93 1.308s-.962-.161-1.457-.515c-.495-.353-3.78-2.556-4.236-2.844-.4-.252-.823-.881-.227-1.489.491-.5 4.214-4.115 4.532-4.433.237-.237.126-.524-.106-.524a.44.44 0 0 0-.275.115c-.389.317-5.814 3.948-6.284 4.239-.311.193-.793.333-1.293.333-.213 0-.429-.026-.636-.083a48.233 48.233 0 0 1-2.429-.742c-.467-.166-.636-.325-.636-.611 0-.406.573-.686 1.176-.943.637-.271 11.667-4.955 12.53-5.265.399-.145.765-.232 1.071-.232z"/></symbol><symbol id="icon-gmail" viewBox="0 0 32 32"><path d="M3.52 4.48A2.89 2.89 0 0 0 .64 7.35v17.29a2.89 2.89 0 0 0 2.88 2.88h24.96a2.89 2.89 0 0 0 2.88-2.88V7.35a2.89 2.89 0 0 0-2.88-2.87zm1.665 1.28h21.632L16 13.3zm-2.13.075L16 14.861l12.947-9.026c.66.201 1.132.804 1.133 1.517-.003.135-.14.405-.34.623-.203.22-.4.358-.4.358l-.003.004-13.338 9.44-13.34-9.444s-.197-.138-.4-.358c-.2-.217-.337-.486-.34-.622a1.585 1.585 0 0 1 1.123-1.514l.011-.003zM1.92 9.377l.005.005.005.003v.003l1.91 1.35V26.24h-.32c-.89 0-1.6-.71-1.6-1.6zm28.16 0V24.64c0 .89-.71 1.6-1.6 1.6h-.32V10.737l1.91-1.35v-.003l.01-.008zM5.12 11.643 16 19.342l10.88-7.699V26.24H5.12z"/></symbol><symbol id="icon-linkedin" viewBox="0 0 32 32"><path d="M5.76 2.56a3.21 3.21 0 0 0-3.2 3.2v20.48c0 1.76 1.44 3.2 3.2 3.2h20.48c1.76 0 3.2-1.44 3.2-3.2V5.76c0-1.76-1.44-3.2-3.2-3.2H5.76zm0 1.28h20.48a1.91 1.91 0 0 1 1.92 1.92v20.48a1.91 1.91 0 0 1-1.92 1.92H5.76a1.91 1.91 0 0 1-1.92-1.92V5.76a1.91 1.91 0 0 1 1.92-1.92zm3.2 3.208c-.701 0-1.331.209-1.798.602-.46.388-.752.964-.754 1.609 0 1.195 1.037 2.127 2.355 2.219-.002-.001-.001-.001 0 0l.002.001c.058.02.125.032.195.033 1.455 0 2.552-1.019 2.552-2.253l-.001-.036v.002c-.065-1.216-1.149-2.177-2.551-2.177zm0 1.264c.891 0 1.243.398 1.281.963-.008.548-.347.973-1.281.973-.886 0-1.288-.454-1.288-.989 0-.268.098-.469.303-.641s.534-.305.985-.305zM7.04 12.16a.64.64 0 0 0-.64.64v12.16c0 .353.287.64.64.64h3.84a.64.64 0 0 0 .64-.64V12.8a.64.64 0 0 0-.64-.64H7.04zm5.76 0a.64.64 0 0 0-.64.64v12.16c0 .353.287.64.64.64h3.84a.64.64 0 0 0 .64-.64v-6.4c0-.531.145-1.059.4-1.405s.577-.554 1.188-.543c.631.011.965.227 1.218.566s.394.848.394 1.381v6.4c0 .353.287.64.64.64h3.84a.64.64 0 0 0 .64-.64v-6.872c0-1.896-.561-3.397-1.523-4.413-.964-1.016-2.302-1.515-3.717-1.515h-.021c-1.138 0-2.196.34-3.079.924l.021-.013v-.271a.64.64 0 0 0-.64-.64h-3.84zm-5.12 1.28h2.56v10.88H7.68V13.44zm5.76 0H16v.998a.64.64 0 0 0 1.15.386l.001-.002s1.005-1.384 3.209-1.384c1.122 0 2.084.373 2.787 1.115s1.172 1.885 1.172 3.533v6.232h-2.56v-5.76c0-.747-.179-1.519-.646-2.147s-1.253-1.064-2.222-1.081c-.974-.017-1.773.429-2.241 1.064S16 17.809 16 18.558v5.76h-2.56v-10.88z"/></symbol></defs></svg>