<svg aria-hidden="true" style="position: absolute; width: 0; height: 0; overflow: hidden;" version="1.1" xmlns="http://www.w3.org/2000/svg" xmlns:xlink="http://www.w3.org/1999/xlink">
<defs>
<symbol id="icon-menu-burger" viewBox="0 0 32 32">
<path d="M2 6h28v6h-28zM2 14h28v6h-28zM2 22h28v6h-28z"></path>
</symbol>
<symbol id="icon-close" viewBox="0 0 32 32">
<path d="M31.708 25.708c-0-0-0-0-0-0l-9.708-9.708 9.708-9.708c0-0 0-0 0-0 0.105-0.105 0.18-0.227 0.229-0.357 0.133-0.356 0.057-0.771-0.229-1.057l-4.586-4.586c-0.286-0.286-0.702-0.361-1.057-0.229-0.13 0.048-0.252 0.124-0.357 0.228 0 0-0 0-0 0l-9.708 9.708-9.708-9.708c-0-0-0-0-0-0-0.105-0.104-0.227-0.18-0.357-0.228-0.356-0.133-0.771-0.057-1.057 0.229l-4.586 4.586c-0.286 0.286-0.361 0.702-0.229 1.057 0.049 0.13 0.124 0.252 0.229 0.357 0 0 0 0 0 0l9.708 9.708-9.708 9.708c-0 0-0 0-0 0-0.104 0.105-0.18 0.227-0.229 0.357-0.133 0.355-0.057 0.771 0.229 1.057l4.586 4.586c0.286 0.286 0.702 0.361 1.057 0.229 0.13-0.049 0.252-0.124 0.357-0.229 0-0 0-0 0-0l9.708-9.708 9.708 9.708c0 0 0 0 0 0 0.105 0.105 0.227 0.18 0.357 0.229 0.356 0.133 0.771 0.057 1.057-0.229l4.586-4.586c0.286-0.286 0.362-0.702 0.229-1.057-0.049-0.13-0.124-0.252-0.229-0.357z"></path>
</symbol>
<symbol id="icon-icon-gmail" viewBox="0 0 32 32">
<path fill="#e0e0e0" style="fill: var(--color7, #e0e0e0)" d="M3.667 27h24.667c1.289 0 2.333-1.045 2.333-2.333v-17.333c0-1.289-1.045-2.333-2.333-2.333h-24.667c-1.289 0-2.333 1.045-2.333 2.333v17.333c0 1.289 1.045 2.333 2.333 2.333z"></path>
<path fill="#d9d9d9" style="fill: var(--color8, #d9d9d9)" d="M17.333 27h11c1.289 0 2.333-1.045 2.333-2.333v-17.333c0-1.289-1.045-2.333-2.333-2.333h-24.667c-1.289 0-2.333 1.045-2.333 2.333l16 19.667z"></path>
<path fill="#eee" style="fill: var(--color9, #eee)" d="M4.497 27h23.837c1.289 0 2.333-1.045 2.333-2.333v-17l-26.17 19.333z"></path>
<path fill="#e0e0e0" style="fill: var(--color7, #e0e0e0)" d="M17.163 27h11.17c1.289 0 2.333-1.045 2.333-2.333v-17l-18.153 13.411 4.649 5.923z"></path>
<path fill="#ca3737" style="fill: var(--color10, #ca3737)" d="M28.333 6.333h-24.667c-1.289 0-2.333-0.289-2.333 1v17.333c0 1.289 1.045 2.333 2.333 2.333h1v-19h22.667v19h1c1.289 0 2.333-1.045 2.333-2.333v-17.333c0-1.289-1.045-1-2.333-1z"></path>
<path fill="#f5f5f5" style="fill: var(--color11, #f5f5f5)" d="M28.333 5h-24.667c-1.289 0-2.333 1.024-2.333 2.333 0 0.804 1.012 1.505 1.012 1.505l13.655 9.665 13.655-9.665c0 0 1.012-0.702 1.012-1.505 0-1.31-1.045-2.334-2.333-2.334z"></path>
<path fill="#e84f4b" style="fill: var(--color12, #e84f4b)" d="M28.831 5.055l-12.831 8.945-12.831-8.945c-1.049 0.225-1.836 1.143-1.836 2.279 0 0.804 1.012 1.505 1.012 1.505l13.655 9.665 13.655-9.665c0 0 1.012-0.702 1.012-1.505 0-1.136-0.787-2.055-1.836-2.279z"></path>
</symbol>
<symbol id="icon-icon-telegram" viewBox="0 0 32 32">
<path fill="#29b6f6" style="fill: var(--color5, #29b6f6)" d="M16 2.667c-7.364 0-13.333 5.97-13.333 13.333s5.97 13.333 13.333 13.333v0c7.364 0 13.333-5.97 13.333-13.333s-5.97-13.333-13.333-13.333v0z"></path>
<path fill="#fff" style="fill: var(--color1, #fff)" d="M22.633 10l-2.497 12.751c0 0-0.107 0.583-0.83 0.583-0.384 0-0.582-0.183-0.582-0.183l-5.409-4.489-2.647-1.334-3.397-0.903c0 0-0.605-0.175-0.605-0.675 0-0.417 0.622-0.615 0.622-0.615l14.211-5.645c-0.001-0.001 0.434-0.157 0.751-0.156 0.195 0 0.417 0.083 0.417 0.333 0 0.167-0.033 0.333-0.033 0.333z"></path>
<path fill="#b0bec5" style="fill: var(--color6, #b0bec5)" d="M15.333 20.337l-2.284 2.249c0 0-0.099 0.077-0.232 0.080-0.046 0.001-0.095-0.006-0.146-0.029l0.643-3.977 2.019 1.676z"></path>
<path fill="#cfd8dc" style="fill: var(--color2, #cfd8dc)" d="M19.931 12.131c-0.113-0.147-0.321-0.173-0.467-0.062l-8.797 5.265c0 0 1.404 3.928 1.618 4.608s0.387 0.697 0.387 0.697l0.643-3.977 6.555-6.064c0.147-0.111 0.174-0.32 0.063-0.467z"></path>
</symbol>
<symbol id="icon-icon-phone" viewBox="0 0 32 32">
<path d="M8.96 2.554c-3.527 0-6.4 2.873-6.4 6.4v14.080c0 3.527 2.873 6.4 6.4 6.4h14.080c3.527 0 6.4-2.873 6.4-6.4v-14.080c0-3.527-2.873-6.4-6.4-6.4h-14.080zM8.96 3.834h14.080c2.836 0 5.12 2.284 5.12 5.12v14.080c0 2.836-2.284 5.12-5.12 5.12h-14.080c-2.836 0-5.12-2.284-5.12-5.12v-14.080c0-2.836 2.284-5.12 5.12-5.12zM11.551 7.063c-1.309-0.057-2.303 0.441-2.928 1.039-0.313 0.299-0.538 0.619-0.692 0.918s-0.253 0.545-0.253 0.865c0-0.029-0.007 0.121-0.011 0.295s-0.003 0.408 0.013 0.691c0.032 0.566 0.128 1.332 0.382 2.24 0.509 1.816 1.656 4.198 4.143 6.685s4.869 3.633 6.685 4.142c0.908 0.255 1.674 0.35 2.24 0.383 0.283 0.016 0.516 0.017 0.69 0.012s0.325-0.011 0.296-0.011c0.32 0 0.566-0.098 0.865-0.253s0.619-0.38 0.918-0.692c0.598-0.625 1.095-1.619 1.039-2.928-0.027-0.624-0.373-1.177-0.885-1.505-0.395-0.253-1.009-0.647-1.81-1.159-0.929-0.594-2.118-0.636-3.087-0.105l0.055-0.027-0.754 0.324-0.055 0.039c-0.183 0.129-0.41 0.152-0.616 0.066-0.577-0.241-1.477-0.716-2.314-1.552s-1.311-1.736-1.553-2.314c-0.086-0.206-0.062-0.433 0.066-0.616l0.039-0.055 0.324-0.754-0.027 0.055c0.531-0.969 0.49-2.158-0.105-3.088-0.512-0.801-0.905-1.415-1.159-1.81-0.328-0.512-0.881-0.858-1.505-0.885zM11.496 8.341c0.18 0.008 0.365 0.113 0.482 0.296 0.254 0.396 0.647 1.010 1.159 1.81 0.34 0.531 0.364 1.229 0.060 1.783l-0.015 0.027-0.309 0.721 0.064-0.116c-0.378 0.539-0.454 1.238-0.2 1.846 0.288 0.69 0.84 1.736 1.829 2.725s2.035 1.54 2.725 1.829c0.608 0.254 1.308 0.178 1.846-0.2l-0.116 0.064 0.721-0.309 0.027-0.015c0.554-0.303 1.251-0.278 1.782 0.061v-0.001c0.8 0.512 1.414 0.905 1.81 1.159 0.183 0.118 0.289 0.303 0.296 0.483 0.042 0.972-0.296 1.58-0.685 1.988-0.195 0.203-0.406 0.351-0.58 0.441s-0.341 0.109-0.277 0.109c-0.117 0-0.179 0.008-0.326 0.011s-0.344 0.004-0.587-0.010c-0.487-0.028-1.159-0.111-1.968-0.337-1.618-0.454-3.787-1.477-6.125-3.815s-3.361-4.507-3.815-6.125c-0.227-0.809-0.31-1.481-0.338-1.967-0.014-0.243-0.014-0.44-0.010-0.588s0.011-0.209 0.011-0.326c0 0.063 0.019-0.103 0.109-0.277s0.238-0.385 0.441-0.58c0.407-0.389 1.016-0.727 1.988-0.685z"></path>
</symbol>
<symbol id="icon-icon-linkedin" viewBox="0 0 32 32">
<path fill="#0288d1" style="fill: var(--color4, #0288d1)" d="M28 24.667c0 1.841-1.492 3.333-3.333 3.333h-17.333c-1.841 0-3.333-1.492-3.333-3.333v-17.333c0-1.841 1.493-3.333 3.333-3.333h17.333c1.841 0 3.333 1.492 3.333 3.333v17.333z"></path>
<path fill="#fff" style="fill: var(--color1, #fff)" d="M8 12.667h3.333v11.333h-3.333zM9.657 11.333h-0.019c-0.995 0-1.638-0.741-1.638-1.667 0-0.946 0.663-1.666 1.676-1.666 1.014 0 1.639 0.72 1.657 1.666 0 0.925-0.643 1.667-1.677 1.667zM24 24h-3.333v-6.066c0-1.465-0.817-2.465-2.128-2.465-1.001 0-1.542 0.675-1.805 1.327-0.096 0.233-0.067 0.879-0.067 1.205v6h-3.333v-11.333h3.333v1.744c0.481-0.744 1.233-1.744 3.159-1.744 2.385 0 4.174 1.5 4.174 4.849l0.001 6.484z"></path>
</symbol>
<symbol id="icon-icon-whatsapp" viewBox="0 0 32 32">
<path fill="#fff" style="fill: var(--color1, #fff)" d="M3.245 28.869l1.796-6.557c-1.108-1.919-1.691-4.096-1.69-6.326 0.003-6.977 5.681-12.653 12.658-12.653 3.386 0.001 6.563 1.319 8.953 3.711s3.705 5.571 3.704 8.952c-0.003 6.977-5.681 12.653-12.657 12.653-0.001 0 0 0 0 0h-0.005c-2.118-0.001-4.2-0.532-6.049-1.541l-6.71 1.76z"></path>
<path fill="#fff" style="fill: var(--color1, #fff)" d="M3.245 29.202c-0.088 0-0.173-0.035-0.237-0.099-0.083-0.085-0.116-0.208-0.085-0.322l1.759-6.424c-1.091-1.937-1.666-4.137-1.665-6.371 0.003-7.161 5.83-12.987 12.991-12.987 3.473 0.001 6.737 1.354 9.189 3.809s3.803 5.718 3.801 9.187c-0.003 7.161-5.831 12.987-12.991 12.987-2.126-0.001-4.229-0.525-6.096-1.518l-6.583 1.726c-0.028 0.008-0.056 0.011-0.085 0.011z"></path>
<path fill="#cfd8dc" style="fill: var(--color2, #cfd8dc)" d="M16.009 3.333c3.386 0.001 6.563 1.319 8.953 3.711s3.705 5.571 3.704 8.952c-0.003 6.977-5.681 12.653-12.657 12.653h-0.005c-2.118-0.001-4.2-0.532-6.049-1.541l-6.71 1.76 1.796-6.557c-1.108-1.919-1.691-4.096-1.69-6.326 0.003-6.977 5.681-12.653 12.658-12.653zM16.009 28.649c0 0 0 0 0 0s0 0 0 0zM16.009 28.649c0 0 0 0 0 0s0 0 0 0zM16.009 2.667c0 0 0 0 0 0-7.344 0-13.321 5.975-13.325 13.319-0.001 2.245 0.566 4.457 1.641 6.415l-1.723 6.293c-0.063 0.23 0.001 0.475 0.169 0.645 0.127 0.128 0.298 0.198 0.474 0.198 0.057 0 0.113-0.007 0.169-0.022l6.458-1.693c1.885 0.979 3.999 1.495 6.131 1.496 7.349 0 13.327-5.975 13.33-13.32 0.001-3.559-1.383-6.906-3.899-9.423-2.517-2.518-5.864-3.905-9.426-3.907v0z"></path>
<path fill="#40c351" style="fill: var(--color3, #40c351)" d="M23.451 8.555c-1.987-1.988-4.627-3.083-7.438-3.084-5.803 0-10.522 4.717-10.525 10.516-0.001 1.987 0.555 3.922 1.609 5.597l0.251 0.398-1.063 3.881 3.982-1.044 0.385 0.228c1.615 0.959 3.467 1.465 5.355 1.466h0.004c5.799 0 10.518-4.718 10.52-10.517 0.001-2.81-1.092-5.453-3.079-7.441z"></path>
<path fill="#fff" style="fill: var(--color1, #fff)" d="M12.845 10.697c-0.237-0.527-0.486-0.537-0.712-0.547-0.185-0.008-0.395-0.007-0.606-0.007s-0.553 0.079-0.843 0.396c-0.29 0.317-1.107 1.081-1.107 2.637s1.133 3.060 1.291 3.271c0.158 0.211 2.188 3.506 5.403 4.774 2.671 1.053 3.215 0.844 3.795 0.791s1.871-0.765 2.135-1.503c0.263-0.739 0.263-1.371 0.185-1.503s-0.29-0.211-0.606-0.369-1.871-0.923-2.161-1.029c-0.29-0.105-0.501-0.158-0.712 0.159s-0.817 1.029-1.001 1.239c-0.185 0.211-0.369 0.238-0.685 0.079s-1.335-0.492-2.543-1.569c-0.94-0.838-1.575-1.873-1.759-2.19s-0.020-0.487 0.139-0.645c0.142-0.142 0.316-0.369 0.475-0.554s0.211-0.317 0.316-0.527c0.105-0.211 0.053-0.396-0.027-0.554-0.078-0.159-0.693-1.723-0.974-2.348z"></path>
</symbol>
</defs>
</svg>
