<svg aria-hidden="true" style="position: absolute; width: 0; height: 0; overflow: hidden;" version="1.1" xmlns="http://www.w3.org/2000/svg" xmlns:xlink="http://www.w3.org/1999/xlink">
<defs>
<symbol id="icon-menu-burger" viewBox="0 0 32 32">
<path d="M2 6h28v6h-28zM2 14h28v6h-28zM2 22h28v6h-28z"></path>
</symbol>
<symbol id="icon-close" viewBox="0 0 32 32">
<path d="M31.708 25.708c-0-0-0-0-0-0l-9.708-9.708 9.708-9.708c0-0 0-0 0-0 0.105-0.105 0.18-0.227 0.229-0.357 0.133-0.356 0.057-0.771-0.229-1.057l-4.586-4.586c-0.286-0.286-0.702-0.361-1.057-0.229-0.13 0.048-0.252 0.124-0.357 0.228 0 0-0 0-0 0l-9.708 9.708-9.708-9.708c-0-0-0-0-0-0-0.105-0.104-0.227-0.18-0.357-0.228-0.356-0.133-0.771-0.057-1.057 0.229l-4.586 4.586c-0.286 0.286-0.361 0.702-0.229 1.057 0.049 0.13 0.124 0.252 0.229 0.357 0 0 0 0 0 0l9.708 9.708-9.708 9.708c-0 0-0 0-0 0-0.104 0.105-0.18 0.227-0.229 0.357-0.133 0.355-0.057 0.771 0.229 1.057l4.586 4.586c0.286 0.286 0.702 0.361 1.057 0.229 0.13-0.049 0.252-0.124 0.357-0.229 0-0 0-0 0-0l9.708-9.708 9.708 9.708c0 0 0 0 0 0 0.105 0.105 0.227 0.18 0.357 0.229 0.356 0.133 0.771 0.057 1.057-0.229l4.586-4.586c0.286-0.286 0.362-0.702 0.229-1.057-0.049-0.13-0.124-0.252-0.229-0.357z"></path>
</symbol>
<symbol id="icon-phone" viewBox="0 0 32 32">
<path d="M8.96 2.554c-3.527 0-6.4 2.873-6.4 6.4v14.080c0 3.527 2.873 6.4 6.4 6.4h14.080c3.527 0 6.4-2.873 6.4-6.4v-14.080c0-3.527-2.873-6.4-6.4-6.4h-14.080zM8.96 3.834h14.080c2.836 0 5.12 2.284 5.12 5.12v14.080c0 2.836-2.284 5.12-5.12 5.12h-14.080c-2.836 0-5.12-2.284-5.12-5.12v-14.080c0-2.836 2.284-5.12 5.12-5.12zM11.551 7.063c-1.309-0.057-2.303 0.441-2.928 1.039-0.313 0.299-0.538 0.619-0.692 0.918s-0.253 0.545-0.253 0.865c0-0.029-0.007 0.121-0.011 0.295s-0.003 0.408 0.013 0.691c0.032 0.566 0.128 1.332 0.382 2.24 0.509 1.816 1.656 4.198 4.143 6.685s4.869 3.633 6.685 4.142c0.908 0.255 1.674 0.35 2.24 0.383 0.283 0.016 0.516 0.017 0.69 0.012s0.325-0.011 0.296-0.011c0.32 0 0.566-0.098 0.865-0.253s0.619-0.38 0.918-0.692c0.598-0.625 1.095-1.619 1.039-2.928-0.027-0.624-0.373-1.177-0.885-1.505-0.395-0.253-1.009-0.647-1.81-1.159-0.929-0.594-2.118-0.636-3.087-0.105l0.055-0.027-0.754 0.324-0.055 0.039c-0.183 0.129-0.41 0.152-0.616 0.066-0.577-0.241-1.477-0.716-2.314-1.552s-1.311-1.736-1.553-2.314c-0.086-0.206-0.062-0.433 0.066-0.616l0.039-0.055 0.324-0.754-0.027 0.055c0.531-0.969 0.49-2.158-0.105-3.088-0.512-0.801-0.905-1.415-1.159-1.81-0.328-0.512-0.881-0.858-1.505-0.885zM11.496 8.341c0.18 0.008 0.365 0.113 0.482 0.296 0.254 0.396 0.647 1.010 1.159 1.81 0.34 0.531 0.364 1.229 0.060 1.783l-0.015 0.027-0.309 0.721 0.064-0.116c-0.378 0.539-0.454 1.238-0.2 1.846 0.288 0.69 0.84 1.736 1.829 2.725s2.035 1.54 2.725 1.829c0.608 0.254 1.308 0.178 1.846-0.2l-0.116 0.064 0.721-0.309 0.027-0.015c0.554-0.303 1.251-0.278 1.782 0.061v-0.001c0.8 0.512 1.414 0.905 1.81 1.159 0.183 0.118 0.289 0.303 0.296 0.483 0.042 0.972-0.296 1.58-0.685 1.988-0.195 0.203-0.406 0.351-0.58 0.441s-0.341 0.109-0.277 0.109c-0.117 0-0.179 0.008-0.326 0.011s-0.344 0.004-0.587-0.010c-0.487-0.028-1.159-0.111-1.968-0.337-1.618-0.454-3.787-1.477-6.125-3.815s-3.361-4.507-3.815-6.125c-0.227-0.809-0.31-1.481-0.338-1.967-0.014-0.243-0.014-0.44-0.010-0.588s0.011-0.209 0.011-0.326c0 0.063 0.019-0.103 0.109-0.277s0.238-0.385 0.441-0.58c0.407-0.389 1.016-0.727 1.988-0.685z"></path>
</symbol>
<symbol id="icon-telegram" viewBox="0 0 32 32">
<path d="M16 1.28c-8.122 0-14.72 6.598-14.72 14.72s6.598 14.72 14.72 14.72 14.72-6.598 14.72-14.72-6.598-14.72-14.72-14.72zM16 2.56c7.43 0 13.44 6.010 13.44 13.44s-6.010 13.44-13.44 13.44-13.44-6.010-13.44-13.44 6.010-13.44 13.44-13.44zM21.816 8.982c-0.438 0-0.93 0.102-1.505 0.309-0.893 0.322-11.402 4.783-12.597 5.291-0.684 0.291-1.956 0.831-1.956 2.12 0 0.854 0.5 1.466 1.486 1.818 0.53 0.189 1.789 0.57 2.519 0.771 0.31 0.085 0.639 0.128 0.977 0.128 0.662 0 1.329-0.164 1.852-0.456-0.004 0.108-0.002 0.216 0.011 0.325 0.079 0.672 0.493 1.304 1.107 1.691 0.403 0.253 3.685 2.453 4.175 2.803 0.689 0.492 1.45 0.752 2.2 0.752 1.434 0 1.914-1.48 2.146-2.191 0.336-1.032 1.594-9.427 1.736-10.908 0.097-1.014-0.326-1.85-1.131-2.235-0.289-0.138-0.629-0.219-0.987-0.219-0.012 0-0.023 0-0.035 0l0.002-0zM21.816 10.262c0.176 0 0.333 0.029 0.466 0.094 0.303 0.145 0.457 0.469 0.41 0.959-0.155 1.615-1.41 9.811-1.677 10.632-0.229 0.703-0.47 1.308-0.93 1.308s-0.962-0.161-1.457-0.515c-0.495-0.353-3.78-2.556-4.236-2.844-0.4-0.252-0.823-0.881-0.227-1.489 0.491-0.5 4.214-4.115 4.532-4.433 0.237-0.237 0.126-0.524-0.106-0.524-0.080 0-0.176 0.033-0.275 0.115-0.389 0.317-5.814 3.948-6.284 4.239-0.311 0.193-0.793 0.333-1.293 0.333-0.213 0-0.429-0.026-0.636-0.083-0.722-0.198-1.944-0.57-2.429-0.742-0.467-0.166-0.636-0.325-0.636-0.611 0-0.406 0.573-0.686 1.176-0.943 0.637-0.271 11.667-4.955 12.53-5.265 0.399-0.145 0.765-0.232 1.071-0.232z"></path>
</symbol>
<symbol id="icon-gmail" viewBox="0 0 32 32">
<path d="M3.52 4.48c-1.58 0-2.872 1.29-2.88 2.87v17.29c0 1.583 1.297 2.88 2.88 2.88h24.96c1.583 0 2.88-1.297 2.88-2.88v-17.29c-0.008-1.58-1.3-2.87-2.88-2.87zM5.185 5.76h21.632l-10.817 7.54zM3.055 5.835l12.945 9.026 12.947-9.026c0.66 0.201 1.132 0.804 1.133 1.517v0c-0.003 0.135-0.14 0.405-0.34 0.623-0.203 0.22-0.4 0.358-0.4 0.358l-0.003 0.004-13.338 9.44-13.34-9.444s-0.197-0.138-0.4-0.358c-0.2-0.217-0.337-0.486-0.34-0.622 0.001-0.714 0.474-1.317 1.123-1.514l0.011-0.003zM1.92 9.377l0.005 0.005 0.005 0.003v0.003l1.91 1.35v15.502h-0.32c-0.89 0-1.6-0.71-1.6-1.6zM30.080 9.377v15.263c0 0.89-0.71 1.6-1.6 1.6h-0.32v-15.503l1.91-1.35v-0.003l0.010-0.008zM5.12 11.643l10.88 7.699 10.88-7.699v14.597h-21.76z"></path>
</symbol>
<symbol id="icon-linkedin" viewBox="0 0 32 32">
<path d="M5.76 2.56c-1.76 0-3.2 1.44-3.2 3.2v20.48c0 1.76 1.44 3.2 3.2 3.2h20.48c1.76 0 3.2-1.44 3.2-3.2v-20.48c0-1.76-1.44-3.2-3.2-3.2h-20.48zM5.76 3.84h20.48c1.068 0 1.92 0.852 1.92 1.92v20.48c0 1.068-0.852 1.92-1.92 1.92h-20.48c-1.068 0-1.92-0.852-1.92-1.92v-20.48c0-1.068 0.852-1.92 1.92-1.92zM8.96 7.048c-0.701 0-1.331 0.209-1.798 0.602-0.46 0.388-0.752 0.964-0.754 1.609v0c0 1.195 1.037 2.127 2.355 2.219-0.002-0.001-0.001-0.001-0-0l0.002 0.001c0.058 0.020 0.125 0.032 0.195 0.033h0c1.455 0 2.552-1.019 2.552-2.253-0-0.012-0.001-0.024-0.001-0.036l0 0.002c-0.065-1.216-1.149-2.177-2.551-2.177zM8.96 8.312c0.891 0 1.243 0.398 1.281 0.963-0.008 0.548-0.347 0.973-1.281 0.973-0.886 0-1.288-0.454-1.288-0.989 0-0.268 0.098-0.469 0.303-0.641s0.534-0.305 0.985-0.305zM7.040 12.16c-0.353 0-0.64 0.287-0.64 0.64v0 12.16c0 0.353 0.287 0.64 0.64 0.64v0h3.84c0.353 0 0.64-0.287 0.64-0.64v0-12.16c0-0.353-0.287-0.64-0.64-0.64v0h-3.84zM12.8 12.16c-0.353 0-0.64 0.287-0.64 0.64v0 12.16c0 0.353 0.287 0.64 0.64 0.64v0h3.84c0.353 0 0.64-0.287 0.64-0.64v0-6.4c0-0.531 0.145-1.059 0.4-1.405s0.577-0.554 1.188-0.543c0.631 0.011 0.965 0.227 1.218 0.566s0.394 0.848 0.394 1.381v6.4c0 0.353 0.287 0.64 0.64 0.64v0h3.84c0.353 0 0.64-0.287 0.64-0.64v0-6.872c0-1.896-0.561-3.397-1.523-4.413-0.964-1.016-2.302-1.515-3.717-1.515-0.006-0-0.014-0-0.021-0-1.138 0-2.196 0.34-3.079 0.924l0.021-0.013v-0.271c0-0.353-0.287-0.64-0.64-0.64v0h-3.84zM7.68 13.44h2.56v10.88h-2.56v-10.88zM13.44 13.44h2.56v0.998c0 0 0 0 0 0 0 0.353 0.287 0.64 0.64 0.64 0.208 0 0.393-0.1 0.51-0.254l0.001-0.002s1.005-1.384 3.209-1.384c1.122 0 2.084 0.373 2.787 1.115s1.172 1.885 1.172 3.533v6.232h-2.56v-5.76c0-0.747-0.179-1.519-0.646-2.147s-1.253-1.064-2.222-1.081c-0.974-0.017-1.773 0.429-2.241 1.064s-0.65 1.415-0.65 2.164v5.76h-2.56v-10.88z"></path>
</symbol>
</defs>
</svg>
